<svg width="22" height="15" viewBox="0 0 22 15" fill="none" xmlns="http://www.w3.org/2000/svg">
<path d="M20.8876 2.34699C20.6422 1.42316 19.9193 0.695586 19.0015 0.448672C17.3378 0 10.6667 0 10.6667 0C10.6667 0 3.99559 0 2.33187 0.448672C1.41402 0.695625 0.691133 1.42316 0.445781 2.34699C0 4.02148 0 7.51516 0 7.51516C0 7.51516 0 11.0088 0.445781 12.6833C0.691133 13.6071 1.41402 14.3044 2.33187 14.5513C3.99559 15 10.6667 15 10.6667 15C10.6667 15 17.3378 15 19.0015 14.5513C19.9193 14.3044 20.6422 13.6071 20.8876 12.6833C21.3334 11.0088 21.3334 7.51516 21.3334 7.51516C21.3334 7.51516 21.3334 4.02148 20.8876 2.34699ZM8.48484 10.6871V4.34316L14.0606 7.51523L8.48484 10.6871Z" fill="#9CA3AF"/>
</svg>
